<svg width="43" height="54" viewBox="0 0 43 54" fill="none" xmlns="http://www.w3.org/2000/svg">
<path d="M6.34544 21.22C5.2601 21.22 4.19677 21.066 3.15544 20.758C2.12877 20.4353 1.26344 19.9953 0.559438 19.438L1.76944 17.216C2.32677 17.6707 3.00144 18.0373 3.79344 18.316C4.6001 18.5947 5.4361 18.734 6.30144 18.734C7.31344 18.734 8.10544 18.5213 8.67744 18.096C9.2641 17.6707 9.55744 17.0987 9.55744 16.38C9.55744 15.896 9.43277 15.4707 9.18344 15.104C8.94877 14.7373 8.52344 14.4587 7.90744 14.268C7.3061 14.0773 6.47744 13.982 5.42144 13.982H1.70344L2.49544 5.6H11.5374V7.998H3.55144L5.04744 6.634L4.45344 12.904L2.95744 11.562H6.05944C7.58477 11.562 8.80944 11.7673 9.73344 12.178C10.6721 12.574 11.3541 13.1313 11.7794 13.85C12.2194 14.554 12.4394 15.3607 12.4394 16.27C12.4394 17.1647 12.2194 17.986 11.7794 18.734C11.3394 19.482 10.6648 20.0833 9.75544 20.538C8.86077 20.9927 7.7241 21.22 6.34544 21.22ZM20.5131 21.22C19.2958 21.22 18.1958 20.912 17.2131 20.296C16.2451 19.68 15.4824 18.7853 14.9251 17.612C14.3678 16.424 14.0891 14.9867 14.0891 13.3C14.0891 11.6133 14.3678 10.1833 14.9251 9.01C15.4824 7.822 16.2451 6.92 17.2131 6.304C18.1958 5.688 19.2958 5.38 20.5131 5.38C21.7451 5.38 22.8451 5.688 23.8131 6.304C24.7811 6.92 25.5438 7.822 26.1011 9.01C26.6731 10.1833 26.9591 11.6133 26.9591 13.3C26.9591 14.9867 26.6731 16.424 26.1011 17.612C25.5438 18.7853 24.7811 19.68 23.8131 20.296C22.8451 20.912 21.7451 21.22 20.5131 21.22ZM20.5131 18.734C21.2318 18.734 21.8551 18.5433 22.3831 18.162C22.9111 17.766 23.3218 17.1647 23.6151 16.358C23.9231 15.5513 24.0771 14.532 24.0771 13.3C24.0771 12.0533 23.9231 11.034 23.6151 10.242C23.3218 9.43533 22.9111 8.84133 22.3831 8.46C21.8551 8.064 21.2318 7.866 20.5131 7.866C19.8238 7.866 19.2078 8.064 18.6651 8.46C18.1371 8.84133 17.7191 9.43533 17.4111 10.242C17.1178 11.034 16.9711 12.0533 16.9711 13.3C16.9711 14.532 17.1178 15.5513 17.4111 16.358C17.7191 17.1647 18.1371 17.766 18.6651 18.162C19.2078 18.5433 19.8238 18.734 20.5131 18.734ZM35.3158 21.22C34.0985 21.22 32.9985 20.912 32.0158 20.296C31.0478 19.68 30.2852 18.7853 29.7278 17.612C29.1705 16.424 28.8918 14.9867 28.8918 13.3C28.8918 11.6133 29.1705 10.1833 29.7278 9.01C30.2852 7.822 31.0478 6.92 32.0158 6.304C32.9985 5.688 34.0985 5.38 35.3158 5.38C36.5478 5.38 37.6478 5.688 38.6158 6.304C39.5838 6.92 40.3465 7.822 40.9038 9.01C41.4758 10.1833 41.7618 11.6133 41.7618 13.3C41.7618 14.9867 41.4758 16.424 40.9038 17.612C40.3465 18.7853 39.5838 19.68 38.6158 20.296C37.6478 20.912 36.5478 21.22 35.3158 21.22ZM35.3158 18.734C36.0345 18.734 36.6578 18.5433 37.1858 18.162C37.7138 17.766 38.1245 17.1647 38.4178 16.358C38.7258 15.5513 38.8798 14.532 38.8798 13.3C38.8798 12.0533 38.7258 11.034 38.4178 10.242C38.1245 9.43533 37.7138 8.84133 37.1858 8.46C36.6578 8.064 36.0345 7.866 35.3158 7.866C34.6265 7.866 34.0105 8.064 33.4678 8.46C32.9398 8.84133 32.5218 9.43533 32.2138 10.242C31.9205 11.034 31.7738 12.0533 31.7738 13.3C31.7738 14.532 31.9205 15.5513 32.2138 16.358C32.5218 17.1647 32.9398 17.766 33.4678 18.162C34.0105 18.5433 34.6265 18.734 35.3158 18.734ZM13.2616 48V32.292H19.5976C20.9909 32.292 22.0909 32.534 22.8976 33.018C23.7189 33.502 24.3056 34.1767 24.6576 35.042C25.0243 35.9073 25.2076 36.9267 25.2076 38.1V43.996H22.3256V38.166C22.3256 37.3007 22.2083 36.6113 21.9736 36.098C21.7389 35.5847 21.3869 35.218 20.9176 34.998C20.4629 34.7633 19.8836 34.646 19.1796 34.646H16.1436V48H13.2616ZM17.7936 36.296H20.6756V45.646H23.7116C24.4156 45.646 24.9949 45.536 25.4496 45.316C25.9189 45.0813 26.2709 44.7073 26.5056 44.194C26.7403 43.6807 26.8576 42.9913 26.8576 42.126V32.292H29.7396V42.192C29.7396 43.3507 29.5489 44.37 29.1676 45.25C28.8009 46.1153 28.1996 46.79 27.3636 47.274C26.5276 47.758 25.4129 48 24.0196 48H17.7936V36.296Z" fill="white"/>
</svg>
