<svg width="69" height="54" viewBox="0 0 69 54" fill="none" xmlns="http://www.w3.org/2000/svg">
<path d="M4.13708 21V6.7L5.39108 7.998H0.881078V5.6H6.99708V21H4.13708ZM16.476 21.22C15.2587 21.22 14.1587 20.912 13.176 20.296C12.208 19.68 11.4453 18.7853 10.888 17.612C10.3307 16.424 10.052 14.9867 10.052 13.3C10.052 11.6133 10.3307 10.1833 10.888 9.01C11.4453 7.822 12.208 6.92 13.176 6.304C14.1587 5.688 15.2587 5.38 16.476 5.38C17.708 5.38 18.808 5.688 19.776 6.304C20.744 6.92 21.5067 7.822 22.064 9.01C22.636 10.1833 22.922 11.6133 22.922 13.3C22.922 14.9867 22.636 16.424 22.064 17.612C21.5067 18.7853 20.744 19.68 19.776 20.296C18.808 20.912 17.708 21.22 16.476 21.22ZM16.476 18.734C17.1947 18.734 17.818 18.5433 18.346 18.162C18.874 17.766 19.2847 17.1647 19.578 16.358C19.886 15.5513 20.04 14.532 20.04 13.3C20.04 12.0533 19.886 11.034 19.578 10.242C19.2847 9.43533 18.874 8.84133 18.346 8.46C17.818 8.064 17.1947 7.866 16.476 7.866C15.7867 7.866 15.1707 8.064 14.628 8.46C14.1 8.84133 13.682 9.43533 13.374 10.242C13.0807 11.034 12.934 12.0533 12.934 13.3C12.934 14.532 13.0807 15.5513 13.374 16.358C13.682 17.1647 14.1 17.766 14.628 18.162C15.1707 18.5433 15.7867 18.734 16.476 18.734ZM31.2787 21.22C30.0614 21.22 28.9614 20.912 27.9787 20.296C27.0107 19.68 26.2481 18.7853 25.6907 17.612C25.1334 16.424 24.8547 14.9867 24.8547 13.3C24.8547 11.6133 25.1334 10.1833 25.6907 9.01C26.2481 7.822 27.0107 6.92 27.9787 6.304C28.9614 5.688 30.0614 5.38 31.2787 5.38C32.5107 5.38 33.6107 5.688 34.5787 6.304C35.5467 6.92 36.3094 7.822 36.8667 9.01C37.4387 10.1833 37.7247 11.6133 37.7247 13.3C37.7247 14.9867 37.4387 16.424 36.8667 17.612C36.3094 18.7853 35.5467 19.68 34.5787 20.296C33.6107 20.912 32.5107 21.22 31.2787 21.22ZM31.2787 18.734C31.9974 18.734 32.6207 18.5433 33.1487 18.162C33.6767 17.766 34.0874 17.1647 34.3807 16.358C34.6887 15.5513 34.8427 14.532 34.8427 13.3C34.8427 12.0533 34.6887 11.034 34.3807 10.242C34.0874 9.43533 33.6767 8.84133 33.1487 8.46C32.6207 8.064 31.9974 7.866 31.2787 7.866C30.5894 7.866 29.9734 8.064 29.4307 8.46C28.9027 8.84133 28.4847 9.43533 28.1767 10.242C27.8834 11.034 27.7367 12.0533 27.7367 13.3C27.7367 14.532 27.8834 15.5513 28.1767 16.358C28.4847 17.1647 28.9027 17.766 29.4307 18.162C29.9734 18.5433 30.5894 18.734 31.2787 18.734ZM46.0815 21.22C44.8641 21.22 43.7641 20.912 42.7815 20.296C41.8135 19.68 41.0508 18.7853 40.4935 17.612C39.9361 16.424 39.6575 14.9867 39.6575 13.3C39.6575 11.6133 39.9361 10.1833 40.4935 9.01C41.0508 7.822 41.8135 6.92 42.7815 6.304C43.7641 5.688 44.8641 5.38 46.0815 5.38C47.3135 5.38 48.4135 5.688 49.3815 6.304C50.3495 6.92 51.1121 7.822 51.6695 9.01C52.2415 10.1833 52.5275 11.6133 52.5275 13.3C52.5275 14.9867 52.2415 16.424 51.6695 17.612C51.1121 18.7853 50.3495 19.68 49.3815 20.296C48.4135 20.912 47.3135 21.22 46.0815 21.22ZM46.0815 18.734C46.8001 18.734 47.4235 18.5433 47.9515 18.162C48.4795 17.766 48.8901 17.1647 49.1835 16.358C49.4915 15.5513 49.6455 14.532 49.6455 13.3C49.6455 12.0533 49.4915 11.034 49.1835 10.242C48.8901 9.43533 48.4795 8.84133 47.9515 8.46C47.4235 8.064 46.8001 7.866 46.0815 7.866C45.3921 7.866 44.7761 8.064 44.2335 8.46C43.7055 8.84133 43.2875 9.43533 42.9795 10.242C42.6861 11.034 42.5395 12.0533 42.5395 13.3C42.5395 14.532 42.6861 15.5513 42.9795 16.358C43.2875 17.1647 43.7055 17.766 44.2335 18.162C44.7761 18.5433 45.3921 18.734 46.0815 18.734ZM60.8842 21.22C59.6669 21.22 58.5669 20.912 57.5842 20.296C56.6162 19.68 55.8535 18.7853 55.2962 17.612C54.7389 16.424 54.4602 14.9867 54.4602 13.3C54.4602 11.6133 54.7389 10.1833 55.2962 9.01C55.8535 7.822 56.6162 6.92 57.5842 6.304C58.5669 5.688 59.6669 5.38 60.8842 5.38C62.1162 5.38 63.2162 5.688 64.1842 6.304C65.1522 6.92 65.9149 7.822 66.4722 9.01C67.0442 10.1833 67.3302 11.6133 67.3302 13.3C67.3302 14.9867 67.0442 16.424 66.4722 17.612C65.9149 18.7853 65.1522 19.68 64.1842 20.296C63.2162 20.912 62.1162 21.22 60.8842 21.22ZM60.8842 18.734C61.6029 18.734 62.2262 18.5433 62.7542 18.162C63.2822 17.766 63.6929 17.1647 63.9862 16.358C64.2942 15.5513 64.4482 14.532 64.4482 13.3C64.4482 12.0533 64.2942 11.034 63.9862 10.242C63.6929 9.43533 63.2822 8.84133 62.7542 8.46C62.2262 8.064 61.6029 7.866 60.8842 7.866C60.1949 7.866 59.5789 8.064 59.0362 8.46C58.5082 8.84133 58.0902 9.43533 57.7822 10.242C57.4889 11.034 57.3422 12.0533 57.3422 13.3C57.3422 14.532 57.4889 15.5513 57.7822 16.358C58.0902 17.1647 58.5082 17.766 59.0362 18.162C59.5789 18.5433 60.1949 18.734 60.8842 18.734ZM26.2616 48V32.292H32.5976C33.9909 32.292 35.0909 32.534 35.8976 33.018C36.7189 33.502 37.3056 34.1767 37.6576 35.042C38.0243 35.9073 38.2076 36.9267 38.2076 38.1V43.996H35.3256V38.166C35.3256 37.3007 35.2083 36.6113 34.9736 36.098C34.7389 35.5847 34.3869 35.218 33.9176 34.998C33.4629 34.7633 32.8836 34.646 32.1796 34.646H29.1436V48H26.2616ZM30.7936 36.296H33.6756V45.646H36.7116C37.4156 45.646 37.9949 45.536 38.4496 45.316C38.9189 45.0813 39.2709 44.7073 39.5056 44.194C39.7403 43.6807 39.8576 42.9913 39.8576 42.126V32.292H42.7396V42.192C42.7396 43.3507 42.5489 44.37 42.1676 45.25C41.8009 46.1153 41.1996 46.79 40.3636 47.274C39.5276 47.758 38.4129 48 37.0196 48H30.7936V36.296Z" fill="white"/>
</svg>
