<svg width="59" height="54" viewBox="0 0 59 54" fill="none" xmlns="http://www.w3.org/2000/svg">
<path d="M1.66355 21V19.086L7.77956 13.278C8.29289 12.794 8.67422 12.3687 8.92355 12.002C9.17289 11.6353 9.33422 11.298 9.40756 10.99C9.49555 10.6673 9.53955 10.3667 9.53955 10.088C9.53955 9.384 9.29755 8.84133 8.81356 8.46C8.32956 8.064 7.61822 7.866 6.67955 7.866C5.93155 7.866 5.24955 7.998 4.63355 8.262C4.03222 8.526 3.51155 8.92933 3.07155 9.472L1.06955 7.932C1.67089 7.12533 2.47755 6.502 3.48955 6.062C4.51622 5.60733 5.66022 5.38 6.92156 5.38C8.03622 5.38 9.00422 5.56333 9.82556 5.93C10.6616 6.282 11.2996 6.788 11.7396 7.448C12.1942 8.108 12.4216 8.89267 12.4216 9.802C12.4216 10.3007 12.3556 10.7993 12.2236 11.298C12.0916 11.782 11.8422 12.2953 11.4756 12.838C11.1089 13.3807 10.5736 13.9893 9.86956 14.664L4.61156 19.658L4.01755 18.58H13.0156V21H1.66355ZM21.0902 21.22C19.8729 21.22 18.7729 20.912 17.7902 20.296C16.8222 19.68 16.0596 18.7853 15.5022 17.612C14.9449 16.424 14.6662 14.9867 14.6662 13.3C14.6662 11.6133 14.9449 10.1833 15.5022 9.01C16.0596 7.822 16.8222 6.92 17.7902 6.304C18.7729 5.688 19.8729 5.38 21.0902 5.38C22.3222 5.38 23.4222 5.688 24.3902 6.304C25.3582 6.92 26.1209 7.822 26.6782 9.01C27.2502 10.1833 27.5362 11.6133 27.5362 13.3C27.5362 14.9867 27.2502 16.424 26.6782 17.612C26.1209 18.7853 25.3582 19.68 24.3902 20.296C23.4222 20.912 22.3222 21.22 21.0902 21.22ZM21.0902 18.734C21.8089 18.734 22.4322 18.5433 22.9602 18.162C23.4882 17.766 23.8989 17.1647 24.1922 16.358C24.5002 15.5513 24.6542 14.532 24.6542 13.3C24.6542 12.0533 24.5002 11.034 24.1922 10.242C23.8989 9.43533 23.4882 8.84133 22.9602 8.46C22.4322 8.064 21.8089 7.866 21.0902 7.866C20.4009 7.866 19.7849 8.064 19.2422 8.46C18.7142 8.84133 18.2962 9.43533 17.9882 10.242C17.6949 11.034 17.5482 12.0533 17.5482 13.3C17.5482 14.532 17.6949 15.5513 17.9882 16.358C18.2962 17.1647 18.7142 17.766 19.2422 18.162C19.7849 18.5433 20.4009 18.734 21.0902 18.734ZM35.893 21.22C34.6756 21.22 33.5756 20.912 32.593 20.296C31.625 19.68 30.8623 18.7853 30.305 17.612C29.7476 16.424 29.469 14.9867 29.469 13.3C29.469 11.6133 29.7476 10.1833 30.305 9.01C30.8623 7.822 31.625 6.92 32.593 6.304C33.5756 5.688 34.6756 5.38 35.893 5.38C37.125 5.38 38.225 5.688 39.193 6.304C40.161 6.92 40.9236 7.822 41.481 9.01C42.053 10.1833 42.339 11.6133 42.339 13.3C42.339 14.9867 42.053 16.424 41.481 17.612C40.9236 18.7853 40.161 19.68 39.193 20.296C38.225 20.912 37.125 21.22 35.893 21.22ZM35.893 18.734C36.6116 18.734 37.235 18.5433 37.763 18.162C38.291 17.766 38.7016 17.1647 38.995 16.358C39.303 15.5513 39.457 14.532 39.457 13.3C39.457 12.0533 39.303 11.034 38.995 10.242C38.7016 9.43533 38.291 8.84133 37.763 8.46C37.235 8.064 36.6116 7.866 35.893 7.866C35.2036 7.866 34.5876 8.064 34.045 8.46C33.517 8.84133 33.099 9.43533 32.791 10.242C32.4976 11.034 32.351 12.0533 32.351 13.3C32.351 14.532 32.4976 15.5513 32.791 16.358C33.099 17.1647 33.517 17.766 34.045 18.162C34.5876 18.5433 35.2036 18.734 35.893 18.734ZM50.6957 21.22C49.4784 21.22 48.3784 20.912 47.3957 20.296C46.4277 19.68 45.665 18.7853 45.1077 17.612C44.5504 16.424 44.2717 14.9867 44.2717 13.3C44.2717 11.6133 44.5504 10.1833 45.1077 9.01C45.665 7.822 46.4277 6.92 47.3957 6.304C48.3784 5.688 49.4784 5.38 50.6957 5.38C51.9277 5.38 53.0277 5.688 53.9957 6.304C54.9637 6.92 55.7264 7.822 56.2837 9.01C56.8557 10.1833 57.1417 11.6133 57.1417 13.3C57.1417 14.9867 56.8557 16.424 56.2837 17.612C55.7264 18.7853 54.9637 19.68 53.9957 20.296C53.0277 20.912 51.9277 21.22 50.6957 21.22ZM50.6957 18.734C51.4144 18.734 52.0377 18.5433 52.5657 18.162C53.0937 17.766 53.5044 17.1647 53.7977 16.358C54.1057 15.5513 54.2597 14.532 54.2597 13.3C54.2597 12.0533 54.1057 11.034 53.7977 10.242C53.5044 9.43533 53.0937 8.84133 52.5657 8.46C52.0377 8.064 51.4144 7.866 50.6957 7.866C50.0064 7.866 49.3904 8.064 48.8477 8.46C48.3197 8.84133 47.9017 9.43533 47.5937 10.242C47.3004 11.034 47.1537 12.0533 47.1537 13.3C47.1537 14.532 47.3004 15.5513 47.5937 16.358C47.9017 17.1647 48.3197 17.766 48.8477 18.162C49.3904 18.5433 50.0064 18.734 50.6957 18.734ZM21.2616 48V32.292H27.5976C28.9909 32.292 30.0909 32.534 30.8976 33.018C31.7189 33.502 32.3056 34.1767 32.6576 35.042C33.0243 35.9073 33.2076 36.9267 33.2076 38.1V43.996H30.3256V38.166C30.3256 37.3007 30.2083 36.6113 29.9736 36.098C29.7389 35.5847 29.3869 35.218 28.9176 34.998C28.4629 34.7633 27.8836 34.646 27.1796 34.646H24.1436V48H21.2616ZM25.7936 36.296H28.6756V45.646H31.7116C32.4156 45.646 32.9949 45.536 33.4496 45.316C33.9189 45.0813 34.2709 44.7073 34.5056 44.194C34.7403 43.6807 34.8576 42.9913 34.8576 42.126V32.292H37.7396V42.192C37.7396 43.3507 37.5489 44.37 37.1676 45.25C36.8009 46.1153 36.1996 46.79 35.3636 47.274C34.5276 47.758 33.4129 48 32.0196 48H25.7936V36.296Z" fill="white"/>
</svg>
