<svg width="53" height="54" viewBox="0 0 53 54" fill="none" xmlns="http://www.w3.org/2000/svg">
<path d="M3.53845 21V6.7L4.79245 7.998H0.282445V5.6H6.39845V21H3.53845ZM15.8774 21.22C14.66 21.22 13.56 20.912 12.5774 20.296C11.6094 19.68 10.8467 18.7853 10.2894 17.612C9.73202 16.424 9.45335 14.9867 9.45335 13.3C9.45335 11.6133 9.73202 10.1833 10.2894 9.01C10.8467 7.822 11.6094 6.92 12.5774 6.304C13.56 5.688 14.66 5.38 15.8774 5.38C17.1094 5.38 18.2094 5.688 19.1774 6.304C20.1454 6.92 20.908 7.822 21.4654 9.01C22.0374 10.1833 22.3234 11.6133 22.3234 13.3C22.3234 14.9867 22.0374 16.424 21.4654 17.612C20.908 18.7853 20.1454 19.68 19.1774 20.296C18.2094 20.912 17.1094 21.22 15.8774 21.22ZM15.8774 18.734C16.596 18.734 17.2194 18.5433 17.7474 18.162C18.2754 17.766 18.686 17.1647 18.9794 16.358C19.2874 15.5513 19.4414 14.532 19.4414 13.3C19.4414 12.0533 19.2874 11.034 18.9794 10.242C18.686 9.43533 18.2754 8.84133 17.7474 8.46C17.2194 8.064 16.596 7.866 15.8774 7.866C15.188 7.866 14.572 8.064 14.0294 8.46C13.5014 8.84133 13.0834 9.43533 12.7754 10.242C12.482 11.034 12.3354 12.0533 12.3354 13.3C12.3354 14.532 12.482 15.5513 12.7754 16.358C13.0834 17.1647 13.5014 17.766 14.0294 18.162C14.572 18.5433 15.188 18.734 15.8774 18.734ZM30.6801 21.22C29.4628 21.22 28.3628 20.912 27.3801 20.296C26.4121 19.68 25.6494 18.7853 25.0921 17.612C24.5348 16.424 24.2561 14.9867 24.2561 13.3C24.2561 11.6133 24.5348 10.1833 25.0921 9.01C25.6494 7.822 26.4121 6.92 27.3801 6.304C28.3628 5.688 29.4628 5.38 30.6801 5.38C31.9121 5.38 33.0121 5.688 33.9801 6.304C34.9481 6.92 35.7108 7.822 36.2681 9.01C36.8401 10.1833 37.1261 11.6133 37.1261 13.3C37.1261 14.9867 36.8401 16.424 36.2681 17.612C35.7108 18.7853 34.9481 19.68 33.9801 20.296C33.0121 20.912 31.9121 21.22 30.6801 21.22ZM30.6801 18.734C31.3988 18.734 32.0221 18.5433 32.5501 18.162C33.0781 17.766 33.4888 17.1647 33.7821 16.358C34.0901 15.5513 34.2441 14.532 34.2441 13.3C34.2441 12.0533 34.0901 11.034 33.7821 10.242C33.4888 9.43533 33.0781 8.84133 32.5501 8.46C32.0221 8.064 31.3988 7.866 30.6801 7.866C29.9908 7.866 29.3748 8.064 28.8321 8.46C28.3041 8.84133 27.8861 9.43533 27.5781 10.242C27.2848 11.034 27.1381 12.0533 27.1381 13.3C27.1381 14.532 27.2848 15.5513 27.5781 16.358C27.8861 17.1647 28.3041 17.766 28.8321 18.162C29.3748 18.5433 29.9908 18.734 30.6801 18.734ZM45.4828 21.22C44.2655 21.22 43.1655 20.912 42.1828 20.296C41.2148 19.68 40.4522 18.7853 39.8948 17.612C39.3375 16.424 39.0588 14.9867 39.0588 13.3C39.0588 11.6133 39.3375 10.1833 39.8948 9.01C40.4522 7.822 41.2148 6.92 42.1828 6.304C43.1655 5.688 44.2655 5.38 45.4828 5.38C46.7148 5.38 47.8148 5.688 48.7828 6.304C49.7508 6.92 50.5135 7.822 51.0708 9.01C51.6428 10.1833 51.9288 11.6133 51.9288 13.3C51.9288 14.9867 51.6428 16.424 51.0708 17.612C50.5135 18.7853 49.7508 19.68 48.7828 20.296C47.8148 20.912 46.7148 21.22 45.4828 21.22ZM45.4828 18.734C46.2015 18.734 46.8248 18.5433 47.3528 18.162C47.8808 17.766 48.2915 17.1647 48.5848 16.358C48.8928 15.5513 49.0468 14.532 49.0468 13.3C49.0468 12.0533 48.8928 11.034 48.5848 10.242C48.2915 9.43533 47.8808 8.84133 47.3528 8.46C46.8248 8.064 46.2015 7.866 45.4828 7.866C44.7935 7.866 44.1775 8.064 43.6348 8.46C43.1068 8.84133 42.6888 9.43533 42.3808 10.242C42.0875 11.034 41.9408 12.0533 41.9408 13.3C41.9408 14.532 42.0875 15.5513 42.3808 16.358C42.6888 17.1647 43.1068 17.766 43.6348 18.162C44.1775 18.5433 44.7935 18.734 45.4828 18.734ZM18.2616 48V32.292H24.5976C25.9909 32.292 27.0909 32.534 27.8976 33.018C28.7189 33.502 29.3056 34.1767 29.6576 35.042C30.0243 35.9073 30.2076 36.9267 30.2076 38.1V43.996H27.3256V38.166C27.3256 37.3007 27.2083 36.6113 26.9736 36.098C26.7389 35.5847 26.3869 35.218 25.9176 34.998C25.4629 34.7633 24.8836 34.646 24.1796 34.646H21.1436V48H18.2616ZM22.7936 36.296H25.6756V45.646H28.7116C29.4156 45.646 29.9949 45.536 30.4496 45.316C30.9189 45.0813 31.2709 44.7073 31.5056 44.194C31.7403 43.6807 31.8576 42.9913 31.8576 42.126V32.292H34.7396V42.192C34.7396 43.3507 34.5489 44.37 34.1676 45.25C33.8009 46.1153 33.1996 46.79 32.3636 47.274C31.5276 47.758 30.4129 48 29.0196 48H22.7936V36.296Z" fill="white"/>
</svg>
