<svg width="53" height="43" viewBox="0 0 53 43" fill="none" xmlns="http://www.w3.org/2000/svg">
<path d="M5.99461 19.2C5.00794 19.2 4.04128 19.06 3.09461 18.78C2.16128 18.4867 1.37461 18.0867 0.734609 17.58L1.83461 15.56C2.34128 15.9733 2.95461 16.3067 3.67461 16.56C4.40794 16.8133 5.16794 16.94 5.95461 16.94C6.87461 16.94 7.59461 16.7467 8.11461 16.36C8.64794 15.9733 8.91461 15.4533 8.91461 14.8C8.91461 14.36 8.80128 13.9733 8.57461 13.64C8.36128 13.3067 7.97461 13.0533 7.41461 12.88C6.86794 12.7067 6.11461 12.62 5.15461 12.62H1.77461L2.49461 5H10.7146V7.18H3.45461L4.81461 5.94L4.27461 11.64L2.91461 10.42H5.73461C7.12128 10.42 8.23461 10.6067 9.07461 10.98C9.92794 11.34 10.5479 11.8467 10.9346 12.5C11.3346 13.14 11.5346 13.8733 11.5346 14.7C11.5346 15.5133 11.3346 16.26 10.9346 16.94C10.5346 17.62 9.92128 18.1667 9.09461 18.58C8.28128 18.9933 7.24794 19.2 5.99461 19.2ZM18.8743 19.2C17.7676 19.2 16.7676 18.92 15.8743 18.36C14.9943 17.8 14.301 16.9867 13.7943 15.92C13.2876 14.84 13.0343 13.5333 13.0343 12C13.0343 10.4667 13.2876 9.16667 13.7943 8.1C14.301 7.02 14.9943 6.2 15.8743 5.64C16.7676 5.08 17.7676 4.8 18.8743 4.8C19.9943 4.8 20.9943 5.08 21.8743 5.64C22.7543 6.2 23.4476 7.02 23.9543 8.1C24.4743 9.16667 24.7343 10.4667 24.7343 12C24.7343 13.5333 24.4743 14.84 23.9543 15.92C23.4476 16.9867 22.7543 17.8 21.8743 18.36C20.9943 18.92 19.9943 19.2 18.8743 19.2ZM18.8743 16.94C19.5276 16.94 20.0943 16.7667 20.5743 16.42C21.0543 16.06 21.4276 15.5133 21.6943 14.78C21.9743 14.0467 22.1143 13.12 22.1143 12C22.1143 10.8667 21.9743 9.94 21.6943 9.22C21.4276 8.48667 21.0543 7.94667 20.5743 7.6C20.0943 7.24 19.5276 7.06 18.8743 7.06C18.2476 7.06 17.6876 7.24 17.1943 7.6C16.7143 7.94667 16.3343 8.48667 16.0543 9.22C15.7876 9.94 15.6543 10.8667 15.6543 12C15.6543 13.12 15.7876 14.0467 16.0543 14.78C16.3343 15.5133 16.7143 16.06 17.1943 16.42C17.6876 16.7667 18.2476 16.94 18.8743 16.94ZM32.3313 19.2C31.2247 19.2 30.2247 18.92 29.3313 18.36C28.4513 17.8 27.758 16.9867 27.2513 15.92C26.7447 14.84 26.4913 13.5333 26.4913 12C26.4913 10.4667 26.7447 9.16667 27.2513 8.1C27.758 7.02 28.4513 6.2 29.3313 5.64C30.2247 5.08 31.2247 4.8 32.3313 4.8C33.4513 4.8 34.4513 5.08 35.3313 5.64C36.2113 6.2 36.9047 7.02 37.4113 8.1C37.9313 9.16667 38.1913 10.4667 38.1913 12C38.1913 13.5333 37.9313 14.84 37.4113 15.92C36.9047 16.9867 36.2113 17.8 35.3313 18.36C34.4513 18.92 33.4513 19.2 32.3313 19.2ZM32.3313 16.94C32.9847 16.94 33.5513 16.7667 34.0313 16.42C34.5113 16.06 34.8847 15.5133 35.1513 14.78C35.4313 14.0467 35.5713 13.12 35.5713 12C35.5713 10.8667 35.4313 9.94 35.1513 9.22C34.8847 8.48667 34.5113 7.94667 34.0313 7.6C33.5513 7.24 32.9847 7.06 32.3313 7.06C31.7047 7.06 31.1447 7.24 30.6513 7.6C30.1713 7.94667 29.7913 8.48667 29.5113 9.22C29.2447 9.94 29.1113 10.8667 29.1113 12C29.1113 13.12 29.2447 14.0467 29.5113 14.78C29.7913 15.5133 30.1713 16.06 30.6513 16.42C31.1447 16.7667 31.7047 16.94 32.3313 16.94ZM45.7884 19.2C44.6817 19.2 43.6817 18.92 42.7884 18.36C41.9084 17.8 41.215 16.9867 40.7084 15.92C40.2017 14.84 39.9484 13.5333 39.9484 12C39.9484 10.4667 40.2017 9.16667 40.7084 8.1C41.215 7.02 41.9084 6.2 42.7884 5.64C43.6817 5.08 44.6817 4.8 45.7884 4.8C46.9084 4.8 47.9084 5.08 48.7884 5.64C49.6684 6.2 50.3617 7.02 50.8684 8.1C51.3884 9.16667 51.6484 10.4667 51.6484 12C51.6484 13.5333 51.3884 14.84 50.8684 15.92C50.3617 16.9867 49.6684 17.8 48.7884 18.36C47.9084 18.92 46.9084 19.2 45.7884 19.2ZM45.7884 16.94C46.4417 16.94 47.0084 16.7667 47.4884 16.42C47.9684 16.06 48.3417 15.5133 48.6084 14.78C48.8884 14.0467 49.0284 13.12 49.0284 12C49.0284 10.8667 48.8884 9.94 48.6084 9.22C48.3417 8.48667 47.9684 7.94667 47.4884 7.6C47.0084 7.24 46.4417 7.06 45.7884 7.06C45.1617 7.06 44.6017 7.24 44.1084 7.6C43.6284 7.94667 43.2484 8.48667 42.9684 9.22C42.7017 9.94 42.5684 10.8667 42.5684 12C42.5684 13.12 42.7017 14.0467 42.9684 14.78C43.2484 15.5133 43.6284 16.06 44.1084 16.42C44.6017 16.7667 45.1617 16.94 45.7884 16.94ZM19.0105 43V28.72H24.7705C26.0372 28.72 27.0372 28.94 27.7705 29.38C28.5172 29.82 29.0505 30.4333 29.3705 31.22C29.7039 32.0067 29.8705 32.9333 29.8705 34V39.36H27.2505V34.06C27.2505 33.2733 27.1439 32.6467 26.9305 32.18C26.7172 31.7133 26.3972 31.38 25.9705 31.18C25.5572 30.9667 25.0305 30.86 24.3905 30.86H21.6305V43H19.0105ZM23.1305 32.36H25.7505V40.86H28.5105C29.1505 40.86 29.6772 40.76 30.0905 40.56C30.5172 40.3467 30.8372 40.0067 31.0505 39.54C31.2639 39.0733 31.3705 38.4467 31.3705 37.66V28.72H33.9905V37.72C33.9905 38.7733 33.8172 39.7 33.4705 40.5C33.1372 41.2867 32.5905 41.9 31.8305 42.34C31.0705 42.78 30.0572 43 28.7905 43H23.1305V32.36Z" fill="white"/>
</svg>
